<svg xmlns="http://www.w3.org/2000/svg" viewBox="0 0 900 700" role="img" aria-label="Smart audio glasses product render">
  <defs>
    <linearGradient id="bg" x1="0" x2="1" y1="0" y2="1">
      <stop offset="0" stop-color="#111827"/>
      <stop offset="1" stop-color="#080a12"/>
    </linearGradient>
    <filter id="shadow" x="-20%" y="-20%" width="140%" height="160%">
      <feDropShadow dx="0" dy="28" stdDeviation="24" flood-color="#000" flood-opacity=".48"/>
    </filter>
  </defs>
  <rect width="900" height="700" rx="34" fill="url(#bg)"/>
  <circle cx="202" cy="170" r="145" fill="#7c5cff" opacity=".16"/>
  <circle cx="710" cy="470" r="150" fill="#3dd6c6" opacity=".15"/>
  <g filter="url(#shadow)" fill="none" stroke-linecap="round" stroke-linejoin="round">
    <path d="M230 336c32-48 99-66 164-45 39 13 73 30 105 0 65-60 192-39 221 45" stroke="#e2e8f0" stroke-width="30"/>
    <path d="M210 346c-16 83 24 144 103 144h62c69 0 104-44 118-118" stroke="#111827" stroke-width="26"/>
    <path d="M690 346c16 83-24 144-103 144h-62c-69 0-104-44-118-118" stroke="#111827" stroke-width="26"/>
    <path d="M229 338c-75-18-132-12-174 18" stroke="#111827" stroke-width="24"/>
    <path d="M671 338c75-18 132-12 174 18" stroke="#111827" stroke-width="24"/>
    <path d="M151 366c88 39 157 58 207 57" stroke="#334155" stroke-width="16"/>
    <path d="M749 366c-88 39-157 58-207 57" stroke="#334155" stroke-width="16"/>
    <path d="M165 392c22 16 52 28 90 37" stroke="#3dd6c6" stroke-width="8" opacity=".8"/>
    <path d="M735 392c-22 16-52 28-90 37" stroke="#3dd6c6" stroke-width="8" opacity=".8"/>
  </g>
</svg>
