<svg xmlns="http://www.w3.org/2000/svg" viewBox="0 0 900 700" role="img" aria-label="Compact camera drone product render">
  <defs>
    <linearGradient id="bg" x1="0" x2="1" y1="0" y2="1">
      <stop offset="0" stop-color="#101820"/>
      <stop offset="1" stop-color="#090b13"/>
    </linearGradient>
    <linearGradient id="body" x1="0" x2="1">
      <stop offset="0" stop-color="#f8fafc"/>
      <stop offset="1" stop-color="#b7c0cf"/>
    </linearGradient>
    <filter id="shadow" x="-20%" y="-20%" width="140%" height="160%">
      <feDropShadow dx="0" dy="28" stdDeviation="24" flood-color="#000" flood-opacity=".48"/>
    </filter>
  </defs>
  <rect width="900" height="700" rx="34" fill="url(#bg)"/>
  <circle cx="188" cy="154" r="135" fill="#3dd6c6" opacity=".14"/>
  <circle cx="735" cy="522" r="178" fill="#ffb84d" opacity=".14"/>
  <g filter="url(#shadow)">
    <path d="M320 329h260c50 0 92 41 92 91v18H228v-18c0-50 42-91 92-91z" fill="url(#body)"/>
    <rect x="360" y="256" width="180" height="112" rx="38" fill="#dbe4ef"/>
    <rect x="405" y="309" width="90" height="64" rx="24" fill="#111827"/>
    <circle cx="450" cy="341" r="20" fill="#3dd6c6"/>
    <path d="M333 333 190 242M567 333l143-91M333 403 190 494M567 403l143 91" stroke="#dbe4ef" stroke-width="24" stroke-linecap="round"/>
    <g fill="none" stroke="#e2e8f0" stroke-width="16">
      <ellipse cx="166" cy="226" rx="94" ry="34" transform="rotate(-14 166 226)"/>
      <ellipse cx="734" cy="226" rx="94" ry="34" transform="rotate(14 734 226)"/>
      <ellipse cx="166" cy="510" rx="94" ry="34" transform="rotate(14 166 510)"/>
      <ellipse cx="734" cy="510" rx="94" ry="34" transform="rotate(-14 734 510)"/>
    </g>
  </g>
</svg>
