<svg xmlns="http://www.w3.org/2000/svg" viewBox="0 0 900 700" role="img" aria-label="Wireless game controller product render">
  <defs>
    <linearGradient id="bg" x1="0" x2="1" y1="0" y2="1">
      <stop offset="0" stop-color="#1f2937"/>
      <stop offset="1" stop-color="#080a12"/>
    </linearGradient>
    <linearGradient id="body" x1="0" x2="1">
      <stop offset="0" stop-color="#f8fafc"/>
      <stop offset="1" stop-color="#cbd5e1"/>
    </linearGradient>
    <filter id="shadow" x="-20%" y="-20%" width="140%" height="160%">
      <feDropShadow dx="0" dy="28" stdDeviation="24" flood-color="#000" flood-opacity=".48"/>
    </filter>
  </defs>
  <rect width="900" height="700" rx="34" fill="url(#bg)"/>
  <circle cx="730" cy="150" r="155" fill="#ffb84d" opacity=".14"/>
  <circle cx="215" cy="520" r="170" fill="#7c5cff" opacity=".16"/>
  <g filter="url(#shadow)">
    <path d="M218 303c44-70 111-88 190-60 27 10 57 15 91 15s64-5 91-15c79-28 146-10 190 60 49 78 63 201 26 248-31 39-89 19-137-55-36-56-73-69-170-69s-134 13-170 69c-48 74-106 94-137 55-37-47-23-170 26-248z" fill="url(#body)"/>
    <path d="M394 256c24 13 57 20 105 20s81-7 105-20v116c-24 22-59 32-105 32s-81-10-105-32z" fill="#111827"/>
    <circle cx="354" cy="362" r="48" fill="#111827"/>
    <circle cx="546" cy="362" r="48" fill="#111827"/>
    <circle cx="546" cy="362" r="20" fill="#7c5cff"/>
    <path d="M315 338h78M354 299v78" stroke="#e2e8f0" stroke-width="18" stroke-linecap="round"/>
    <circle cx="640" cy="315" r="13" fill="#3dd6c6"/>
    <circle cx="679" cy="354" r="13" fill="#ffb84d"/>
    <circle cx="601" cy="354" r="13" fill="#ff6b8a"/>
    <circle cx="640" cy="393" r="13" fill="#94a3b8"/>
  </g>
</svg>
