<svg xmlns="http://www.w3.org/2000/svg" viewBox="0 0 900 700" role="img" aria-label="Portable game console product render">
  <defs>
    <linearGradient id="bg" x1="0" x2="1" y1="0" y2="1">
      <stop offset="0" stop-color="#121416"/>
      <stop offset="1" stop-color="#1c1f1e"/>
    </linearGradient>
    <linearGradient id="screen" x1="0" x2="1">
      <stop offset="0" stop-color="#94a3b8"/>
      <stop offset="1" stop-color="#e5e7eb"/>
    </linearGradient>
    <filter id="shadow" x="-20%" y="-20%" width="140%" height="160%">
      <feDropShadow dx="0" dy="26" stdDeviation="22" flood-color="#000" flood-opacity=".45"/>
    </filter>
  </defs>
  <rect width="900" height="700" rx="34" fill="url(#bg)"/>
  <circle cx="716" cy="138" r="144" fill="#d9c8a9" opacity=".1"/>
  <circle cx="178" cy="548" r="160" fill="#9db59a" opacity=".12"/>
  <g filter="url(#shadow)">
    <rect x="180" y="208" width="540" height="286" rx="42" fill="#2a2e2c"/>
    <rect x="282" y="236" width="336" height="230" rx="22" fill="url(#screen)"/>
    <rect x="304" y="256" width="292" height="190" rx="16" fill="#0f172a"/>
    <circle cx="232" cy="316" r="28" fill="#9db59a"/>
    <circle cx="668" cy="384" r="28" fill="#d9c8a9"/>
    <circle cx="232" cy="392" r="10" fill="#f5f1e8"/>
    <circle cx="668" cy="310" r="10" fill="#f5f1e8"/>
    <path d="M214 388h36M232 370v36" stroke="#f5f1e8" stroke-width="10" stroke-linecap="round"/>
    <circle cx="636" cy="352" r="8" fill="#f5f1e8"/>
    <circle cx="668" cy="336" r="8" fill="#f5f1e8"/>
    <circle cx="700" cy="352" r="8" fill="#f5f1e8"/>
    <circle cx="668" cy="368" r="8" fill="#f5f1e8"/>
  </g>
</svg>
